<svg xmlns="http://www.w3.org/2000/svg"  viewBox="0 0 100 100" width="50px" height="50px" baseProfile="basic"><circle cx="49" cy="48.875" r="37" fill="#cee1f4"/><circle cx="12" cy="27.875" r="2" fill="#78a0cf"/><circle cx="76" cy="11.875" r="1" fill="#f1bc19"/><circle cx="82" cy="13.875" r="4" fill="#f1bc19"/><circle cx="86" cy="22.875" r="2" fill="#78a0cf"/><circle cx="80" cy="74.875" r="2" fill="#fbcd59"/><circle cx="14" cy="61.875" r="4" fill="#fbcd59"/><circle cx="24" cy="85.875" r="2" fill="#78a0cf"/><circle cx="20" cy="65.875" r="1" fill="#f1bc19"/><circle cx="79" cy="32.875" r="1" fill="#fff"/><path fill="#472b29" d="M24.218,47.6c-0.534,0-0.967,0.433-0.967,0.967c0,0.534,0.433,0.967,0.967,0.967 s0.967-0.433,0.967-0.967C25.185,48.033,24.752,47.6,24.218,47.6z"/><path fill="#472b29" d="M80.6,38.975h-5.63c-0.773,0-1.4,0.627-1.4,1.4l-0.015,1.024l-4.516-3.221 c-0.242-0.172-0.527-0.26-0.813-0.26c-0.219,0-0.439,0.051-0.641,0.155c-0.466,0.24-0.759,0.72-0.759,1.245v1.37l-0.231-0.796 C66.421,39.295,65.873,39,65.25,39h-9.678c-0.773,0-1.4,0.602-1.4,1.375l0.001,7.958h-3.044L51.125,40.4c0-0.773-0.627-1.4-1.4-1.4 h-5.67c-0.773,0-1.4,0.627-1.4,1.4l0.004,7.933h-2.977L39.678,40.4c0-0.773-0.627-1.4-1.4-1.4h-5.67c-0.773,0-1.4,0.627-1.4,1.4 l0.004,9.289l-5.697-11.9c-0.233-0.481-0.72-0.788-1.255-0.789c-0.002,0-0.003,0-0.005,0c-0.533,0-1.02,0.302-1.255,0.78 l-7.855,16.199c-0.214,0.434-0.189,0.948,0.067,1.359s0.705,0.661,1.189,0.661h5.797c0.57,0,1.084-0.346,1.298-0.875l0.606-1.498 h0.25l0.523,1.448c0.2,0.555,0.727,0.924,1.317,0.924H41.66c0.505,0,0.953-0.273,1.199-0.689c0.244,0.411,0.688,0.689,1.2,0.689 h9.048c0.531,0,0.992-0.306,1.228-0.759c0.233,0.449,0.697,0.759,1.238,0.759h9.731c0.628,0,1.18-0.419,1.349-1.024l0.173-0.376 c0,0.773,0.627,1.4,1.4,1.4h5.764c0.773,0,1.4-0.627,1.4-1.4v-0.83l4.325,3.428c0.252,0.2,0.56,0.303,0.87,0.303 c0.207,0,0.415-0.046,0.609-0.14c0.483-0.234,0.791-0.723,0.791-1.26L82,40.375C82,39.602,81.373,38.975,80.6,38.975z M65.304,54.599h-9.731v-4.693c0.014-0.116,0.014-0.231,0-0.345l-0.001-9.185h9.678l1.341,4.519l-5.714,0.002v0.885l3.489-0.002 v3.297l-3.489,0.002v0.907l5.714-0.002L65.304,54.599z M80.585,56.1l-6.595-5.228v3.726h-5.764v-15.28l6.744,4.799v-3.742h5.63 L80.585,56.1z"/><g><path fill="#2243aa" d="M25.334,52.226l0.857,2.372h5.845L24.255,38.4L16.4,54.599h5.797l0.96-2.372H25.334z M24.218,47.6 c0.534,0,0.967,0.433,0.967,0.967s-0.433,0.967-0.967,0.967c-0.534,0-0.967-0.433-0.967-0.967S23.684,47.6,24.218,47.6z"/><polygon fill="#2243aa" points="32.608,40.4 32.612,54.599 41.66,54.599 42.746,49.733 38.282,49.733 38.278,40.4"/><polygon fill="#2243aa" points="44.055,40.4 44.055,54.599 53.107,54.599 54.192,49.733 49.729,49.733 49.725,40.4"/><polygon fill="#2243aa" points="65.304,54.599 66.591,49.983 60.877,49.986 60.877,49.079 64.366,49.076 64.366,45.779 60.877,45.781 60.877,44.897 66.591,44.894 65.25,40.375 55.572,40.375 55.573,54.599"/><polygon fill="#2243aa" points="68.226,39.318 68.226,54.599 73.99,54.599 73.99,50.872 80.585,56.1 80.6,40.375 74.97,40.375 74.97,44.117"/></g></svg>